<svg xmlns="http://www.w3.org/2000/svg" viewBox="0 0 737.01 56.69"><path d="M717.37,10.49c5.87,0,10.63,3.89,10.63,8.68h0V37.71c0,4.8-4.76,8.68-10.63,8.68H24.81c-5.84,0-10.55-3.91-10.55-8.68V19.11c0-4.74,4.74-8.58,10.55-8.62H717.37m0-2.23H24.81c-7.33,0-13.28,4.86-13.28,10.85v18.6c0,6,6,10.85,13.28,10.85H717.37c7.34,0,13.28-4.85,13.28-10.85V19.11C730.65,13.12,724.71,8.26,717.37,8.26Z" fill="#fff"/><path d="M54.08,35.93l-6-5.4c2.73-3.77,1.48-8.78-2.78-11.19S35.32,18,32.59,21.79,31.11,30.57,35.37,33a10.16,10.16,0,0,0,9.88,0l6,5.36a2.15,2.15,0,0,0,2.77-.17,1.59,1.59,0,0,0,0-2.26ZM33.7,26.17c0-3.2,2.94-5.79,6.55-5.79S46.8,23,46.8,26.17,43.87,32,40.25,32s-6.55-2.59-6.55-5.78Z" fill="#fff"/></svg>