<svg xmlns="http://www.w3.org/2000/svg" viewBox="0 0 50 50"><path d="M2.91,5.36A10.25,10.25,0,0,0,1.34,17.58a16.14,16.14,0,0,0,4.79,5,10.66,10.66,0,0,0,3.72,1.36,3.07,3.07,0,0,0,1.83-.18l.25-.11c.4-.2.79-.38,1.19-.63a23.17,23.17,0,0,0,4.12-3.26h0l.06-.06.12-.12h0a19.93,19.93,0,0,0,3.08-3.94c.24-.4.44-.8.64-1.19a1.86,1.86,0,0,0,.1-.25,3.15,3.15,0,0,0,.18-1.83,11.29,11.29,0,0,0-1.36-3.73,16.35,16.35,0,0,0-5-4.78A10.1,10.1,0,0,0,2.91,5.36Z" fill="#fff"/><path d="M21.59,17.05a.31.31,0,0,0-.09.11c-.05.06-.09.14-.14.2l-.44.66a24.5,24.5,0,0,1-2.39,2.82,26.5,26.5,0,0,1-3,2.57l-.66.45-.21.13-.1.09a1.49,1.49,0,0,0,.06,2.08,1.43,1.43,0,0,1,.23.2C21.32,32,38,46.47,39.11,47.36c0,0,1.39.89,4-1.76h0c2.63-2.61,1.75-4,1.75-4-.88-1.14-15.38-17.8-21-24.27a2.11,2.11,0,0,1-.19-.23A1.54,1.54,0,0,0,21.59,17.05Zm4.6,9.87a1.27,1.27,0,1,1-1.79,1.8l-2.94-2.94a1.28,1.28,0,1,1,1.8-1.8Z" fill="#fff"/><path d="M47.22,5.36A10.24,10.24,0,0,1,48.8,17.58a16.14,16.14,0,0,1-4.79,5,10.71,10.71,0,0,1-3.73,1.36,3.09,3.09,0,0,1-1.83-.18l-.25-.11c-.39-.2-.78-.38-1.18-.63a22.82,22.82,0,0,1-4.12-3.26h0l-.07-.06-.11-.12h0a20.24,20.24,0,0,1-3.07-3.94c-.25-.4-.44-.8-.64-1.19a1.09,1.09,0,0,1-.1-.25,3.07,3.07,0,0,1-.18-1.83,11.07,11.07,0,0,1,1.36-3.73,16.24,16.24,0,0,1,5-4.78A10.09,10.09,0,0,1,47.22,5.36Z" fill="#fff"/><path d="M28.55,17.05a.48.48,0,0,1,.09.11l.13.2.44.66a25.55,25.55,0,0,0,2.39,2.82,28.37,28.37,0,0,0,3,2.57l.67.45.2.13a1.35,1.35,0,0,1,.11.09,1.5,1.5,0,0,1-.06,2.08,2.12,2.12,0,0,0-.24.2C28.82,32,12.17,46.47,11,47.36c0,0-1.4.89-4-1.76H7c-2.63-2.61-1.75-4-1.75-4,.89-1.14,15.39-17.8,21-24.27a2.2,2.2,0,0,0,.2-.23A1.54,1.54,0,0,1,28.55,17.05Zm-4.61,9.87a1.28,1.28,0,1,0,1.8,1.8l2.94-2.94a1.28,1.28,0,1,0-1.8-1.8Z" fill="#fff"/></svg>