<svg xmlns="http://www.w3.org/2000/svg" xmlns:xlink="http://www.w3.org/1999/xlink" viewBox="0 0 50 50"><defs><linearGradient id="a" x1="0.29" y1="17.73" x2="39.61" y2="17.73" gradientUnits="userSpaceOnUse"><stop offset="0" stop-color="#262626"/><stop offset="0" stop-color="#2a2a2a"/><stop offset="0.05" stop-color="#535353"/><stop offset="0.1" stop-color="#777"/><stop offset="0.15" stop-color="#979797"/><stop offset="0.22" stop-color="#b3b3b3"/><stop offset="0.29" stop-color="#c9c9c9"/><stop offset="0.37" stop-color="#dadada"/><stop offset="0.47" stop-color="#e5e5e5"/><stop offset="0.61" stop-color="#ececec"/><stop offset="1" stop-color="#eee"/></linearGradient><linearGradient id="b" x1="0.04" y1="17.73" x2="39.86" y2="17.73" gradientUnits="userSpaceOnUse"><stop offset="0" stop-color="#020202"/><stop offset="0.03" stop-color="#131313"/><stop offset="0.12" stop-color="#464646"/><stop offset="0.21" stop-color="#737373"/><stop offset="0.31" stop-color="#999"/><stop offset="0.41" stop-color="#b8b8b8"/><stop offset="0.52" stop-color="#d0d0d0"/><stop offset="0.63" stop-color="#e1e1e1"/><stop offset="0.75" stop-color="#ebebeb"/><stop offset="0.9" stop-color="#eee"/></linearGradient><linearGradient id="c" x1="8.71" y1="38.72" x2="49.65" y2="38.72" gradientUnits="userSpaceOnUse"><stop offset="0" stop-color="#505050"/><stop offset="0.09" stop-color="#747474"/><stop offset="0.2" stop-color="#999"/><stop offset="0.32" stop-color="#b8b8b8"/><stop offset="0.45" stop-color="#d0d0d0"/><stop offset="0.58" stop-color="#e1e1e1"/><stop offset="0.72" stop-color="#ebebeb"/><stop offset="0.9" stop-color="#eee"/></linearGradient><linearGradient id="d" x1="8.46" y1="38.72" x2="49.9" y2="38.72" xlink:href="#b"/></defs><path d="M10.55,20.76a19.47,19.47,0,0,1,6.5-9.65c2.3-1.77,4.69-2.38,9.44-3.66a18,18,0,0,1,4.94-.63A11.09,11.09,0,0,1,33.17,7a9,9,0,0,1,3.48,1.49,9.34,9.34,0,0,1,3,3.55c.24.47.6,1.26,1.21,4.77a62.27,62.27,0,0,1,.92,7.72c.13,2.47.19,3.72-.2,4.37-.88,1.45-2.45,1.5-7.42,2.64-5.45,1.25-4.69,1.49-7.62,1.93s-2.95.06-9,.31c-5.67.23-7.08.62-8-.47-.25-.29-.75-1-.11-5.93A32.9,32.9,0,0,1,10.55,20.76Z" fill="#fff"/><path d="M3.64,31.93C1.89,31.07,1.17,30.66.7,29.79a4.67,4.67,0,0,1-.41-2.53c0-2.51.2-4.34.3-5.59.29-3.4.09-3.5.41-5.49a18,18,0,0,1,.92-3.85A15.09,15.09,0,0,1,7.6,5.42a18,18,0,0,1,4.88-2.34,28.92,28.92,0,0,1,5.25-1,33.8,33.8,0,0,1,6.53-.48A18.44,18.44,0,0,1,35.33,5.72c3.17,2.77,4.42,6.19,4.27,6.3S38.15,8.87,35,7.54c-2.12-.89-4.2-.56-7.26-.08A23.22,23.22,0,0,0,21.9,9a21.39,21.39,0,0,0-8.22,6,16.21,16.21,0,0,0-2.46,3.91A25.46,25.46,0,0,0,9.53,29.39c0,2,.28,3.89-.71,4.47C8.27,34.18,6.72,33.43,3.64,31.93Z" stroke-width="0.5" fill="url(#a)" stroke="url(#b)"/><path d="M41.54,29c-.32.13-.31.39-.93.77a4.42,4.42,0,0,1-1.69.59c-.71.16-1.39.39-2.1.54-1.36.3-2.71.63-4.07.92-3.72.82-3.17.89-5.07,1.23a42.82,42.82,0,0,1-5.65.56c-1.17,0-.83,0-2.7,0-2.35.06-5.32.21-6,.24a14.85,14.85,0,0,1-2.62.05c-1.12-.12-1.64-.36-1.89-.1-.44.48.57,2.12.92,2.64,2.68,4,4,6,5.79,7.41,2,1.63,6.44,5.16,11.57,4.47,2.73-.37,5.7-1.93,7.82-3.05a37.41,37.41,0,0,1,4.25-2A23.32,23.32,0,0,1,43,42.11c3.94-.82,5.84.2,6.51-.84.37-.58-.18-1.77-1.28-4.13l-.13-.26a27,27,0,0,0-3-5.05C44.63,31.12,42.66,28.59,41.54,29Z" stroke-width="0.5" fill="url(#c)" stroke="url(#d)"/></svg>