<svg version="1.1" id="Layer_1" xmlns="http://www.w3.org/2000/svg" xmlns:xlink="http://www.w3.org/1999/xlink" x="0px" y="0px"
	 viewBox="0 0 100 100" style="enable-background:new 0 0 100 100;" xml:space="preserve">
<style type="text/css">
	.st0{fill:#FFFFFF;}
</style>
<g>
	<polygon class="st0" points="94.7,49 94.7,93.3 5.4,93.3 5.4,9.4 50.6,9.4 50.6,6.2 2.3,6.2 2.3,96.5 97.7,96.5 97.7,49 	"/>
	<path class="st0" d="M47.8,30.6c-1,1-1.4,1.9-1.4,3.3c0,1.3,0.5,2.4,1.4,3.3c1,1,1.9,1.4,3.3,1.4c1.3,0,2.4-0.5,3.3-1.4
		c1-1,1.4-2.1,1.4-3.3c0-1.4-0.5-2.5-1.4-3.3c-1-1-2.1-1.3-3.3-1.3C49.8,29.1,48.9,29.6,47.8,30.6z"/>
	<rect x="48.7" y="47.8" class="st0" width="4.8" height="25.1"/>
</g>
</svg>
