<svg xmlns="http://www.w3.org/2000/svg" xmlns:xlink="http://www.w3.org/1999/xlink" viewBox="0 0 283.46 283.46"><defs><linearGradient id="a" x1="10.8" y1="10.8" x2="277.71" y2="277.71" gradientUnits="userSpaceOnUse"><stop offset="0" stop-color="#ad227b"/><stop offset="1" stop-color="#ce543d"/></linearGradient></defs><rect width="283.46" height="283.46" rx="28.26" fill="url(#a)"/><path d="M77.73,76.5A37.67,37.67,0,0,1,110,44.24c25.55-3.7,47.9,18.66,44.2,44.21a37.66,37.66,0,0,1-32.25,32.25C96.39,124.4,74,102.05,77.73,76.5Zm38.5,70.81c-56.83,0-75.84,38.89-77.39,42.28a1.21,1.21,0,0,0-.11.49v20.45a1.2,1.2,0,0,0,1.2,1.2h152.6a1.19,1.19,0,0,0,1.2-1.2V190.08a1.19,1.19,0,0,0-.1-.49C192.08,186.2,173.06,147.31,116.23,147.31Z" fill="#fff"/><circle cx="199.71" cy="76.03" r="32.21" fill="#aaa"/><path d="M199.56,133.9a67.83,67.83,0,0,0-25.05,4.3,6.51,6.51,0,0,0-1.09,11.58c22.33,14.23,31.31,33.4,31.31,35.66v1.29h46.5a6.5,6.5,0,0,0,6.5-6.5V170C257.73,168.69,243.51,133.9,199.56,133.9Z" fill="#aaa"/></svg>