<svg xmlns="http://www.w3.org/2000/svg" xmlns:xlink="http://www.w3.org/1999/xlink" viewBox="0 0 283.46 283.46"><defs><linearGradient id="a" x1="8.31" y1="8.31" x2="275.16" y2="275.16" gradientUnits="userSpaceOnUse"><stop offset="0.01" stop-color="#004fc0"/><stop offset="1" stop-color="#00a580"/></linearGradient></defs><rect width="283.46" height="283.46" rx="28.37" fill="url(#a)"/><path d="M262.6,20.87V262.6H20.87V20.87ZM147.71,255.12l-.12,0-.71.36-.19,0h0l-.16,0-.71-.36a.24.24,0,0,0-.24.05l0,.11-.17,4.31,0,.2.11.13,1,.74.15,0h0l.12,0,1-.74.13-.17h0l0-.16-.17-4.31a.22.22,0,0,0-.16-.18Zm2.67-1.13-.14,0-1.86.93-.1.1h0l0,.12.18,4.32,0,.13h0l.09.07,2,.94a.29.29,0,0,0,.29-.08l0-.15-.35-6.19a.25.25,0,0,0-.19-.21Zm-7.21,0a.22.22,0,0,0-.27.05l-.06.14-.34,6.19a.23.23,0,0,0,.17.24h.15l2-.94.09-.08h0l0-.12.18-4.32,0-.13h0l-.1-.09Z" fill="none"/><path d="M222.31,141.15c0-44.12-36-80-80.58-80S61.15,97,61.15,141.15c0,12,1.48,19.7,3.31,25.34,1.22,3.76,4.16.06,5.61-1.29a25.17,25.17,0,0,1,35,.5c14.31,14.22,27.51,33.94,9.28,52.07-9.79,9.73-24.54,13.78-35.76,3.3-14.48-13.54-27.07-29.29-33.26-48.35-2.59-8-4.29-17.84-4.29-31.57C41,85.79,86.17,41,141.73,41S242.45,85.79,242.45,141.15c0,13.73-1.7,23.59-4.29,31.57-6.19,19.06-18.78,34.81-33.26,48.35-11.22,10.48-26,6.43-35.75-3.3-18.24-18.13-5-37.85,9.27-52.07a25.18,25.18,0,0,1,35-.5c2.79,2.62,4.16,5.73,5.6,1.29C220.83,160.85,222.31,153.14,222.31,141.15Z" fill="#fff"/></svg>