<svg xmlns="http://www.w3.org/2000/svg" viewBox="0 0 500 500"><path d="M458.76,303.43l-24.19-14.12c-26.21-14.11-26.21-54.43,0-68.55l24.19-14.11c20.16-12.1,26.21-36.29,14.11-54.44l-20.16-34.27c-12.1-20.16-36.29-26.21-54.44-14.11l-24.19,12.09c-26.21,16.13-60.48-4-60.48-34.27V53.42A40.44,40.44,0,0,0,273.27,13.1H233a40.43,40.43,0,0,0-40.32,40.32V79.63c0,30.24-34.28,50.41-60.49,34.28L108,99.79a39.1,39.1,0,0,0-54.44,14.12L33.35,148.18c-10.08,22.18-4,46.37,14.11,58.47l24.2,14.11c26.21,16.13,26.21,54.44,0,70.57l-24.2,14.11c-20.16,12.1-26.21,36.29-14.11,54.44l20.16,34.27c12.1,20.17,36.29,26.21,54.44,14.12l24.19-14.12c26.21-16.13,60.49,4,60.49,34.28v28.22A40.44,40.44,0,0,0,233,497h40.32a40.45,40.45,0,0,0,40.33-40.33V430.44c0-30.24,34.27-50.4,60.48-34.27l24.19,12.1a39.1,39.1,0,0,0,54.44-14.12l20.16-34.27C483,339.72,476.9,315.52,458.76,303.43ZM253.11,335.68A80.65,80.65,0,1,1,333.76,255,80.88,80.88,0,0,1,253.11,335.68Z" fill="#fff"/></svg>