<svg xmlns="http://www.w3.org/2000/svg" xmlns:xlink="http://www.w3.org/1999/xlink" viewBox="0 0 283.46 283.46"><defs><linearGradient id="a" x1="8.34" y1="8.34" x2="275.13" y2="275.13" gradientUnits="userSpaceOnUse"><stop offset="0" stop-color="#fbe322"/><stop offset="1" stop-color="#e35b00"/></linearGradient></defs><rect width="283.46" height="283.46" rx="28.46" fill="url(#a)"/><path d="M164.55,110.81A128.85,128.85,0,0,0,146.26,94.7a89,89,0,0,0-17.82-10.28,38.15,38.15,0,0,0-15.23-3.29q-6.93.14-10.8,4.31a9.17,9.17,0,0,0-1.57,2.08,19.6,19.6,0,0,0-.92,1.8,19.17,19.17,0,0,0-.74,2.32c-.31,1.11-.53,1.82-.65,2.13L64.18,207.1l2.13,2.22a33.32,33.32,0,0,0-6.42,5.84c-1.88,2.22-3.52,4-4.94,5.46a11.34,11.34,0,0,1-5.08,3,4.12,4.12,0,0,0-1.61,1.25,3,3,0,0,0-1,1.9A3.26,3.26,0,0,0,49,229.51a6.51,6.51,0,0,0,3.69,1.11,7.54,7.54,0,0,0,5-2.08,35.38,35.38,0,0,0,4.85-5.33A36.85,36.85,0,0,1,66,219a47.31,47.31,0,0,1,5.36-4.07l2.4,2.32,109.13-37.13a11.82,11.82,0,0,0,5.54-3.34q3.87-4.17,4-11.53a44.81,44.81,0,0,0-3.09-16.2,98.07,98.07,0,0,0-9.65-18.89A129,129,0,0,0,164.55,110.81Zm-10,10.09Q168.7,135.35,176,148.54t3.56,17.36q-3.79,4.17-16.53-3.06t-26.78-21.57q-14.22-14.45-21.56-27.59t-3.55-17.41q3.78-4.17,16.57,3T154.57,120.9ZM149.4,52.84l4.62,14-11.91,8.71h14.68l4.52,14,4.53-14h14.59l-11.82-8.71,4.61-13.88-11.91,8.61Zm-25.85,0-2.49,12.69L133.71,68l2.49-12.69ZM206.74,91,216.9,80.34l13.2,6.48-6.83-13L233.51,63.4,219,65.9l-6.83-13.06-2,14.63L195.66,70l13.2,6.39Zm-3.42,22.78,12.28,8.15-3.87,14.26,11.44-9.26,12.19,8.15-5.08-13.89,11.45-9.08-14.68.65L221.88,99l-3.78,14.17Zm-5.26-34.35L170.55,102l3.41,4.17,27.52-22.6Zm9.6,43.7-21.51-1.94-.55,5.37,21.6,1.94Zm2.13,25.93-4,12.4,12.28,4,4.06-12.32Z" fill="#fff"/></svg>