<svg xmlns="http://www.w3.org/2000/svg" viewBox="0 0 50 50"><path d="M25,1A24,24,0,1,0,49,25,24,24,0,0,0,25,1Zm0,46.42A22.38,22.38,0,1,1,47.38,25,22.38,22.38,0,0,1,25,47.38Zm8.29-35.64a5,5,0,1,0,5,5A5,5,0,0,0,33.29,11.74Zm0,8.29a3.32,3.32,0,1,1,3.31-3.32A3.32,3.32,0,0,1,33.29,20ZM21.68,16.71a5,5,0,1,0-5,5A5,5,0,0,0,21.68,16.71Zm-5,3.32A3.32,3.32,0,1,1,20,16.71,3.32,3.32,0,0,1,16.71,20Zm13,9.11-3.56,3.55,3.56,3.56a.82.82,0,0,1,0,1.17h0a.82.82,0,0,1-1.17,0h0L25,33.86l-3.56,3.56a.82.82,0,0,1-1.17,0h0a.82.82,0,0,1,0-1.17h0l3.56-3.56-3.56-3.55a.83.83,0,0,1,0-1.18.82.82,0,0,1,1.17,0L25,31.52,28.56,28a.82.82,0,0,1,1.17,0A.83.83,0,0,1,29.73,29.14Z" fill="#fff" stroke="#fff" stroke-miterlimit="10" stroke-width="1.92"/></svg>