<svg xmlns="http://www.w3.org/2000/svg" viewBox="0 0 50 50"><path d="M10.72,5.73l-10,10L.52,16a2.5,2.5,0,0,0,.21,3.3l.24.21a2.5,2.5,0,0,0,3.3-.21L10,13.52v29l0,.29A2.49,2.49,0,0,0,12.5,45l.29,0A2.49,2.49,0,0,0,15,42.5v-29l5.74,5.73.23.21a2.5,2.5,0,0,0,3.3-3.75l-10-10L14,5.52A2.5,2.5,0,0,0,10.72,5.73ZM37.5,5h-.29A2.52,2.52,0,0,0,35,7.51v29l-5.73-5.73L29,30.52a2.5,2.5,0,0,0-3.3,3.75l10,10,.24.21a2.5,2.5,0,0,0,3.3-.21l10-10,.21-.24a2.5,2.5,0,0,0-.21-3.3L49,30.52a2.5,2.5,0,0,0-3.3.21L40,36.47v-29l0-.29A2.49,2.49,0,0,0,37.5,5Z" fill="#fff"/></svg>