<svg xmlns="http://www.w3.org/2000/svg" viewBox="0 0 142 88"><path d="M48.9,87.5a3.87,3.87,0,0,1-3.8-2.8A4,4,0,0,1,47,80.2l.2-.1c.6-.3,1.3-.7,1.9-1q2.4-1.35,4.8-3a32.38,32.38,0,0,0,5.3-4.5A4,4,0,0,1,62,70.4H79.7a4,4,0,0,1,2.9,1.2,38.67,38.67,0,0,0,5.5,4.5c1.7,1.2,3.4,2.2,5.1,3.3H93l1.9,1a3.72,3.72,0,0,1-1.7,7Zm22-48.1A8.4,8.4,0,1,1,79.3,31,8.45,8.45,0,0,1,70.9,39.4Z" fill="#fff"/><path d="M70.9,23.1A7.9,7.9,0,1,1,63,31a7.92,7.92,0,0,1,7.9-7.9M79.6,71a3.58,3.58,0,0,1,2.5,1.1,41.54,41.54,0,0,0,5.6,4.6,60.44,60.44,0,0,0,6.9,4.2,3.3,3.3,0,0,1,1.5,4.3A3.22,3.22,0,0,1,93.2,87H48.9a3.68,3.68,0,0,1-3.4-2.4A3.32,3.32,0,0,1,47,80.8h.1l.2-.1c.7-.3,1.3-.7,1.9-1q2.4-1.35,4.8-3a46,46,0,0,0,5.4-4.5,3.49,3.49,0,0,1,2.4-1H79.6M70.9,22.1A8.92,8.92,0,0,0,62,31h0a8.9,8.9,0,1,0,8.9-8.9ZM79.6,70H61.9a4.39,4.39,0,0,0-3.1,1.3,37.52,37.52,0,0,1-5.3,4.4,46.64,46.64,0,0,1-4.7,3c-.6.3-1.2.7-1.9,1h-.1a4.28,4.28,0,0,0-2.2,5.1A4.5,4.5,0,0,0,48.9,88H93.2a4.22,4.22,0,0,0,1.9-8,69.24,69.24,0,0,1-6.8-4.2,33.08,33.08,0,0,1-5.4-4.5A5.07,5.07,0,0,0,79.6,70ZM95.1,80Z"/><path d="M17.7,61.5A17.2,17.2,0,0,1,.5,44.3V17.7A17.2,17.2,0,0,1,17.7.5H124.3a17.2,17.2,0,0,1,17.2,17.2V44.3a17.2,17.2,0,0,1-17.2,17.2ZM70.9,12.8a18.1,18.1,0,1,0,12.9,5.3,18.27,18.27,0,0,0-12.9-5.3Zm42,0a4.9,4.9,0,1,0,4.9,4.9A4.91,4.91,0,0,0,112.9,12.8Z" fill="#fff"/><path d="M124.3,1A16.73,16.73,0,0,1,141,17.7V44.3A16.73,16.73,0,0,1,124.3,61H17.7A16.73,16.73,0,0,1,1,44.3V17.7A16.73,16.73,0,0,1,17.7,1H124.3M112.9,23.2h0a5.29,5.29,0,0,0,3.8-1.6,5.46,5.46,0,0,0,1.6-3.8,5.4,5.4,0,1,0-10.8,0,5.44,5.44,0,0,0,5.4,5.4m-42,26.5h0A18.74,18.74,0,0,0,89.6,31a18.21,18.21,0,0,0-5.5-13.2A18.69,18.69,0,1,0,70.9,49.7M124.3,0H17.7A17.67,17.67,0,0,0,0,17.7V44.3A17.67,17.67,0,0,0,17.7,62H124.3A17.67,17.67,0,0,0,142,44.3V17.7A17.67,17.67,0,0,0,124.3,0ZM112.9,22.2a4.4,4.4,0,1,1,4.4-4.4,4.51,4.51,0,0,1-4.4,4.4Zm-42,26.5h0A17.7,17.7,0,1,1,88.6,31,17.67,17.67,0,0,1,70.9,48.7Z"/></svg>