<svg xmlns="http://www.w3.org/2000/svg" viewBox="0 0 144.17 106.74"><line x1="57.17" y1="17.83" x2="141.17" y2="17.83" fill="#fff" stroke="#fff" stroke-linecap="round" stroke-linejoin="round" stroke-width="6"/><line x1="3.17" y1="17.83" x2="27.17" y2="17.83" fill="#fff" stroke="#fff" stroke-linecap="round" stroke-linejoin="round" stroke-width="6"/><line x1="111" y1="51.26" x2="141" y2="51.26" fill="none" stroke="#fff" stroke-linecap="round" stroke-linejoin="round" stroke-width="6"/><line x1="3" y1="51.26" x2="81" y2="51.26" fill="none" stroke="#fff" stroke-linecap="round" stroke-linejoin="round" stroke-width="6"/><line x1="63.17" y1="84.34" x2="141.17" y2="84.34" fill="#fff" stroke="#fff" stroke-linecap="round" stroke-linejoin="round" stroke-width="6"/><line x1="3.17" y1="84.34" x2="33.17" y2="84.34" fill="none" stroke="#fff" stroke-linecap="round" stroke-linejoin="round" stroke-width="6"/><path d="M96.17,42.43a9,9,0,1,1-9,9,9,9,0,0,1,9-9m0-6a15,15,0,1,0,15,15,15,15,0,0,0-15-15Z" fill="#fff"/><path d="M42,9a9,9,0,1,1-9,9,9,9,0,0,1,9-9m0-6A15,15,0,1,0,57,18,15,15,0,0,0,42,3Z" fill="#fff"/><path d="M48.17,75.34a9,9,0,1,1-9,9,9,9,0,0,1,9-9m0-6a15,15,0,1,0,15,15,15,15,0,0,0-15-15Z" fill="#fff"/></svg>