<svg xmlns="http://www.w3.org/2000/svg" viewBox="0 0 142.4 142.4"><path d="M37.5,139.5a13,13,0,0,1-13-13V17.6A13.14,13.14,0,0,1,37.6,4.5h67.8a13.3,13.3,0,0,1,13.2,13.1V126.5a13.14,13.14,0,0,1-13.1,13.1h0ZM71.2,57.8a34.4,34.4,0,1,0,34.4,34.4A34.4,34.4,0,0,0,71.2,57.8Zm0-40.7A14.1,14.1,0,1,0,85.3,31.2,14.08,14.08,0,0,0,71.2,17.1Zm0,95.1A19.9,19.9,0,1,1,91.1,92.3,19.89,19.89,0,0,1,71.2,112.2Z" fill="#fff"/><path d="M105.4,5a12.83,12.83,0,0,1,12.7,12.6V126.5a12.68,12.68,0,0,1-12.6,12.6L37.6,139h-.1A12.5,12.5,0,0,1,25,126.5V17.6A12.68,12.68,0,0,1,37.6,5h67.8M71.2,45.8A14.6,14.6,0,1,0,56.6,31.2,14.55,14.55,0,0,0,71.2,45.8m0,81.3A34.9,34.9,0,1,0,36.3,92.2a35,35,0,0,0,34.9,34.9m0-54.2A19.4,19.4,0,1,1,51.8,92.3,19.55,19.55,0,0,1,71.2,72.9M105.4,4H37.6A13.61,13.61,0,0,0,24,17.6V126.5A13.44,13.44,0,0,0,37.5,140h.1l67.9.1a13.61,13.61,0,0,0,13.6-13.6V17.6A13.77,13.77,0,0,0,105.4,4ZM71.2,44.8A13.6,13.6,0,1,1,84.8,31.2,13.61,13.61,0,0,1,71.2,44.8Zm0,81.3a33.9,33.9,0,1,1,33.9-33.9,33.93,33.93,0,0,1-33.9,33.9Zm0-54.2A20.4,20.4,0,1,0,91.6,92.3,20.42,20.42,0,0,0,71.2,71.9Z"/></svg>