<svg xmlns="http://www.w3.org/2000/svg" viewBox="0 0 156 156"><path d="M78,97.2a42,42,0,1,1,41.9-42A42.06,42.06,0,0,1,78,97.2Zm0-74.9a33,33,0,1,0,33,33,33,33,0,0,0-33-33Z" fill="#fff"/><path d="M78,13.8h0A41.4,41.4,0,1,1,36.5,55.3,41.42,41.42,0,0,1,78,13.8m0,74.9A33.45,33.45,0,1,0,44.5,55.3,33.57,33.57,0,0,0,78,88.7m0-75.9a42.4,42.4,0,1,0,42.4,42.4A42.64,42.64,0,0,0,78,12.8Zm0,74.9a32.45,32.45,0,1,1,32.5-32.4A32.5,32.5,0,0,1,78,87.7Z"/><path d="M22.1,136.1a79.68,79.68,0,0,1,111.8,0l-6.4,6.4a70.26,70.26,0,0,0-98.8,0Z" fill="#fff"/><path d="M78,113.7a78.27,78.27,0,0,1,55.1,22.4l-5.7,5.7a70.76,70.76,0,0,0-98.8,0l-5.7-5.7A78.27,78.27,0,0,1,78,113.7m0-1A80.28,80.28,0,0,0,21.4,136l7.1,7.1a69.77,69.77,0,0,1,98.8,0l7.1-7.1A79.48,79.48,0,0,0,78,112.7Z"/></svg>