<svg xmlns="http://www.w3.org/2000/svg" viewBox="0 0 593.3 692.2"><path d="M49.3,691.3a47,47,0,0,1-18.9-3.9,48.1,48.1,0,0,1-25.2-63L252.5,31a47.86,47.86,0,0,1,88.4,0L588.2,624.4c0,.1.1.2.1.4s.1.2.1.3a47.9,47.9,0,1,1-88.7,36.2L450.1,542.5H143.2L93.7,661.3c-.1.2-.1.3-.2.4l-.3.6A47.62,47.62,0,0,1,49.3,691.3ZM181.7,446.5H410.2L296.7,174.1Z" fill="#fff"/><path d="M296.7,2.5A46.71,46.71,0,0,1,340,31.4L587.3,624.7c.1.2.1.3.2.4s.1.2.1.3v.2a46.95,46.95,0,0,1-25.8,61.2A46.73,46.73,0,0,1,500.7,661L451.4,542.8l-.5-1.2H142.6l-.5,1.2L92.8,660.9v.2c0,.1-.1.1-.1.2l-.3.6A46.88,46.88,0,0,1,6.3,624.8L253.4,31.4A46.81,46.81,0,0,1,278.7,6.1a45.92,45.92,0,0,1,18-3.6m-116.5,445H411.7l-1.2-2.8-112-268.8-1.8-4.4-1.9,4.4L181.4,444.7l-1.2,2.8M296.7.5a48.72,48.72,0,0,0-45.1,30.1L4.3,624A49.09,49.09,0,0,0,30,688.3a48,48,0,0,0,19.3,4,48.82,48.82,0,0,0,44.9-29.7c.1-.3.3-.6.4-.9l49.3-118.2H449.5l49.3,118.2a48.91,48.91,0,1,0,90.6-36.9c-.1-.3-.2-.5-.3-.8L341.8,30.6A48.68,48.68,0,0,0,296.7.5Zm-113.5,445L296.7,176.7l112,268.8Z"/><path d="M296.7,1a48.27,48.27,0,0,1,44.7,29.8L588.7,624.2c.1.3.2.5.3.8a48.49,48.49,0,0,1-26.6,63.1,47.63,47.63,0,0,1-18.2,3.6,48.4,48.4,0,0,1-44.9-30.2L450.2,543.6l-.3-.6H143.6l-.3.6L94.2,661.5c-.1.3-.3.6-.4.9a48.43,48.43,0,0,1-89-38.2L252,30.8A48.35,48.35,0,0,1,296.7,1M182.5,446h227l-.6-1.4-111.3-267-.9-2.2-.9,2.2-112.7,267-.6,1.4M296.7,0a48.7,48.7,0,0,0-18.9,3.8,49.54,49.54,0,0,0-26.7,26.7L3.9,623.8a49.33,49.33,0,0,0,25.9,64.9,50,50,0,0,0,19.5,4,49.49,49.49,0,0,0,45.5-30,10.37,10.37,0,0,0,.4-1l49.1-117.9H449.2l49.1,117.9a49.45,49.45,0,0,0,91.6-37.3c-.1-.3-.2-.5-.3-.8L342.3,30.4A49.38,49.38,0,0,0,296.7,0ZM184,445,296.7,178,408,445Z"/></svg>