<svg xmlns="http://www.w3.org/2000/svg" viewBox="0 0 147.2 88.9"><path d="M131.1,88.4a15.67,15.67,0,0,1-7.9-2.2l-.4-.3a13.29,13.29,0,0,1-2.6-2.1l-27.6-22H53.4L25.7,84.6a15,15,0,0,1-9.9,3.7A15.28,15.28,0,0,1,.5,73.1,14.92,14.92,0,0,1,.7,71v-.4A8,8,0,0,0,1,69.1L11.3,26.5A30.78,30.78,0,0,1,41.9.5,31,31,0,0,1,59.1,5.7l.1.1H87.7l.1-.1a33.08,33.08,0,0,1,8.3-3.9A30,30,0,0,1,105,.5a31.21,31.21,0,0,1,29.7,22.1v.3q.3,1.2.6,2.7l10.2,42.3a14.37,14.37,0,0,1,1.1,5.3,15.43,15.43,0,0,1-15.4,15.2ZM33.8,46.3a7.5,7.5,0,0,0,15,0V39.8h6.5a7.55,7.55,0,0,0,7.5-7.5V31.1l-.1.1a7.53,7.53,0,0,0-7.4-6.4H48.8V18.3A7.67,7.67,0,0,0,46,11.9a7.39,7.39,0,0,0-2.8-1.4,11,11,0,0,0-1.8-.2h-.5a7.51,7.51,0,0,0-7,8v6.5H27.3a7.5,7.5,0,0,0,0,15h6.5Zm72.3-7.8A7.65,7.65,0,0,0,98.8,46a7.58,7.58,0,0,0,7.5,7.6h.7v-.1a7.57,7.57,0,0,0,6.8-7.4v-.2a7.53,7.53,0,0,0-7.5-7.4ZM91.9,39.8l.4.1a7.55,7.55,0,0,0,7.5-7.5v-.2a7.53,7.53,0,0,0-7.5-7.4h-.1a7.65,7.65,0,0,0-7.4,7.4v.1a7.53,7.53,0,0,0,7.1,7.5Zm28.3-15.2a7.17,7.17,0,0,0-2.9.6,7.32,7.32,0,0,0-4,4.1,7.57,7.57,0,0,0,7,10.3,7.17,7.17,0,0,0,2.9-.6,7.41,7.41,0,0,0,4.6-6.9,6.84,6.84,0,0,0-.6-2.9A7.55,7.55,0,0,0,120.2,24.6Zm-13.7-14a7.5,7.5,0,1,0,7.5,7.5A7.55,7.55,0,0,0,106.5,10.6Z" fill="#fff"/><path d="M41.9,1A30.77,30.77,0,0,1,58.8,6.1l.2.2H87.8l.3-.2a27.83,27.83,0,0,1,8.2-3.8A29.32,29.32,0,0,1,105.1,1a30.79,30.79,0,0,1,29.2,21.6v.3q.3,1.2.6,2.7L145.1,68v.2a14.55,14.55,0,0,1,1.1,5.1v.1a15,15,0,0,1-14.9,14.7h-.2a15.5,15.5,0,0,1-7.6-2.1l-.4-.3h0a15.67,15.67,0,0,1-2.5-2h0L93,61.5l-.3-.2H53.2l-.2.2L25.3,84.2a14.46,14.46,0,0,1-9.6,3.6h0A14.58,14.58,0,0,1,1,73.2a12.31,12.31,0,0,1,.2-2v-.5c.1-.5.2-1,.3-1.4L11.8,26.7h0a29.61,29.61,0,0,1,4.8-12.1A30.16,30.16,0,0,1,41.9,1M33.3,18.3v6H27.2a8,8,0,0,0,0,16h6v6a8,8,0,0,0,16,0v-6h6a8,8,0,0,0,8-8V29.9l-.2.3a8,8,0,0,0-7.7-5.9h-6v-6a8.07,8.07,0,0,0-3-6.8,8.47,8.47,0,0,0-3-1.5c-.7,0-1.3-.1-2-.1h-.5a7.87,7.87,0,0,0-5.5,2.7,8,8,0,0,0-2,5.7m73.2,7.8a8,8,0,1,0-8-8,8,8,0,0,0,8,8m13.8,14a8.15,8.15,0,0,0,3.1-.6,7.86,7.86,0,0,0,4.9-7.4V32a8.15,8.15,0,0,0-.6-3.1,8,8,0,0,0-7.4-4.9,8.15,8.15,0,0,0-3.1.6,7.75,7.75,0,0,0-4.3,4.4,7.61,7.61,0,0,0,.1,6.1,7.67,7.67,0,0,0,7.3,5m-28.8.2h0l.8.1a8,8,0,0,0,8-8v-.2a8.14,8.14,0,0,0-8-7.9h-.1a8.12,8.12,0,0,0-7.9,7.9v.1a8,8,0,0,0,7.2,8M106.3,54h1.4v-.1a8,8,0,0,0,6.6-7.8v-.3a8.05,8.05,0,0,0-8-7.8h-.2a8.17,8.17,0,0,0-7.8,7.9V46a8.27,8.27,0,0,0,2.3,5.7,7.93,7.93,0,0,0,5.7,2.3M41.9,0a31.31,31.31,0,0,0-31,26.4L.6,69.1.3,70.6V71A8.33,8.33,0,0,0,0,73.2,15.73,15.73,0,0,0,15.7,88.9h.1A15.27,15.27,0,0,0,26,85L53.6,62.3H92.4l27.5,21.8a14,14,0,0,0,2.7,2.1l.5.4a15.52,15.52,0,0,0,8.1,2.3h.2a15.9,15.9,0,0,0,15.9-15.7v-.1a14.08,14.08,0,0,0-1.1-5.4L136,25.4c-.2-.9-.4-1.9-.6-2.8v-.2A31.83,31.83,0,0,0,105.1,0,32.28,32.28,0,0,0,96,1.3a31.4,31.4,0,0,0-8.5,4H59.4A31.46,31.46,0,0,0,41.9,0ZM27.3,39.3a7,7,0,0,1,0-14h7.1v-7A7,7,0,0,1,41,10.9h.4a9.85,9.85,0,0,1,1.7.2,7.07,7.07,0,0,1,2.6,1.3,7.26,7.26,0,0,1,2.7,6v7h7a7,7,0,0,1,7,7h0a7,7,0,0,1-7,7h-7v7a7,7,0,0,1-14,0v-7H27.3Zm79.2-14.2a7,7,0,1,1,7-7,7,7,0,0,1-7,7Zm13.8,14a7,7,0,0,1-2.7-13.5,6.6,6.6,0,0,1,2.7-.6,6.91,6.91,0,0,1,6.4,4.3,6.26,6.26,0,0,1,.6,2.7v.1a6.77,6.77,0,0,1-4.2,6.4,7.44,7.44,0,0,1-2.8.6Zm-28,.2a7,7,0,0,1-7-7v-.1a7,7,0,0,1,6.9-6.9h.1a7.07,7.07,0,0,1,7,6.9v.2a6.87,6.87,0,0,1-7,6.9Zm14,13.7a7,7,0,0,1-7-7v-.1a7.19,7.19,0,0,1,6.8-7h.1a7,7,0,0,1,7,6.9V46a6.94,6.94,0,0,1-6.9,7Z"/></svg>