<svg xmlns="http://www.w3.org/2000/svg" viewBox="0 0 205.15 182.35"><path d="M22.77,160.52A21.89,21.89,0,0,1,.9,138.66V27.38A21.89,21.89,0,0,1,22.77,5.52h40A21.37,21.37,0,0,1,78,11.82L94.91,27.39a.51.51,0,0,0,.34.13H146A21.88,21.88,0,0,1,167.9,49.38V60.52h-16V48.61a6.09,6.09,0,0,0-6.09-6.09H90.18L68.27,22.27A6,6,0,0,0,64,20.52H23a6.1,6.1,0,0,0-6.1,6.09v101a.49.49,0,0,0,.39.48l.11,0a.51.51,0,0,0,.45-.28L43.05,78.4a10.8,10.8,0,0,1,9.7-5.88H193.07a10.77,10.77,0,0,1,9.26,5.14,10.4,10.4,0,0,1,.42,10.23l-34,66.75a10.87,10.87,0,0,1-10,5.88Z" fill="#fff"/><path d="M62.79,6A20.94,20.94,0,0,1,77.68,12.2L94.57,27.76a1,1,0,0,0,.67.26H146A21.38,21.38,0,0,1,167.4,49.38V60h-15V48.61A6.6,6.6,0,0,0,145.81,42H90.38L68.64,21.92A6.57,6.57,0,0,0,64,20H23a6.6,6.6,0,0,0-6.59,6.59v101a1,1,0,0,0,.77,1l.23,0a1,1,0,0,0,.9-.55L43.5,78.63A10.3,10.3,0,0,1,52.75,73H193.07a10.27,10.27,0,0,1,8.84,4.91,9.9,9.9,0,0,1,.4,9.73l-34,66.76a10.4,10.4,0,0,1-9.56,5.6h-136A21.39,21.39,0,0,1,1.4,138.66V27.38A21.39,21.39,0,0,1,22.77,6h40m0-1h-40A22.37,22.37,0,0,0,.4,27.38V138.66A22.37,22.37,0,0,0,22.77,161h136a11.44,11.44,0,0,0,10.45-6.15l34-66.75A11.15,11.15,0,0,0,193.07,72H52.75a11.35,11.35,0,0,0-10.14,6.15L17.4,127.65v-101A5.59,5.59,0,0,1,23,21H64a5.53,5.53,0,0,1,3.94,1.61L90,43h55.82a5.59,5.59,0,0,1,5.59,5.59V61h17V49.38A22.36,22.36,0,0,0,146,27H95.24L78.35,11.47A22,22,0,0,0,62.79,5Z"/></svg>