<svg xmlns="http://www.w3.org/2000/svg" viewBox="0 0 145 145"><path d="M65.5,139.5V116.3l-.4-.1c-23.5-3.5-41.3-23.6-41.6-46.7H34.4c.3,20,17,36.2,37.6,36.2s37.3-16.2,37.6-36.2h10.9c-.3,23.2-18,43.2-41.6,46.7l-.4.1v23.2ZM72,89.3h-.7C60.4,89,51.5,79.5,51.5,68.2V26.7a20.5,20.5,0,0,1,41,0l-.1,42.1v.7A20.3,20.3,0,0,1,72,89.3Z" fill="#fff"/><path d="M72,6.7a20.06,20.06,0,0,1,20,20V69.5A19.87,19.87,0,0,1,72,88.9h-.6C60.7,88.5,52,79.2,52,68.2V26.7a20.06,20.06,0,0,1,20-20M120,70a46,46,0,0,1-12.1,30,48.6,48.6,0,0,1-29,15.7l-.9.1V139H66V115.8l-.9-.1a48.84,48.84,0,0,1-29-15.7A46.5,46.5,0,0,1,24,70h9.9c.5,20.1,17.4,36.2,38.1,36.2S109.5,90,110.1,70H120M72,5.7a21,21,0,0,0-21,21V68.2c0,11.5,8.9,21.2,20.3,21.6H72A21.06,21.06,0,0,0,93,69.5v-.7l.1-42.1A21,21,0,0,0,72,5.7ZM121,69H109.1c0,21.3-17.7,36.2-37.1,36.2S34.9,90.3,34.9,69H23c0,24.2,19,44.3,42,47.7V140H79V116.7c23-3.4,42-23.5,42-47.7Z"/></svg>