<svg xmlns="http://www.w3.org/2000/svg" viewBox="0 0 425.2 425.2"><path d="M260.07,197.06a28,28,0,0,1-27.93-27.93V43a27.88,27.88,0,0,1,27.74-28,28.67,28.67,0,0,1,5,.44C340.22,29.14,400.05,89,413.71,164.36a27.56,27.56,0,0,1-6,22.63,27.94,27.94,0,0,1-21.51,10.07Z" fill="#fff"/><path d="M259.88,15.57a27.54,27.54,0,0,1,4.86.44A184.69,184.69,0,0,1,413.18,164.46a27,27,0,0,1-5.89,22.18,27.41,27.41,0,0,1-21.1,9.88H260.07a27.42,27.42,0,0,1-27.39-27.39V43a27.35,27.35,0,0,1,27.2-27.44m0-1.07A28.47,28.47,0,0,0,231.6,43V169.13a28.47,28.47,0,0,0,28.47,28.47H386.19a28.42,28.42,0,0,0,28.05-33.34A185.76,185.76,0,0,0,264.93,15a28.13,28.13,0,0,0-5.05-.45Z"/><path d="M232.1,383.43v-125a28.35,28.35,0,0,1,28.35-28.35h125a28.28,28.28,0,0,1,27.93,33.19A184.39,184.39,0,0,1,265.28,411.36,28.29,28.29,0,0,1,232.1,383.43Z" fill="#fff" stroke="#000" stroke-miterlimit="10" stroke-width="1"/><path d="M41.07,199.94a27.57,27.57,0,0,1-27.21-32.32A186.08,186.08,0,0,1,163.62,17.86a27.43,27.43,0,0,1,32.32,27.21V172.34a27.63,27.63,0,0,1-27.6,27.6Z" fill="#fff"/><path d="M168.49,18.08a26.93,26.93,0,0,1,26.8,27V172.34a27,27,0,0,1-26.95,26.95H41.07a27,27,0,0,1-20.73-9.69,26.67,26.67,0,0,1-5.84-21.86A185.16,185.16,0,0,1,163.74,18.5a27.14,27.14,0,0,1,4.75-.42h0m0-1.31a28.26,28.26,0,0,0-5,.44,186.48,186.48,0,0,0-150.3,150.3A28.23,28.23,0,0,0,41.07,200.6H168.34a28.26,28.26,0,0,0,28.26-28.26V45.07a28.27,28.27,0,0,0-28.11-28.3Z"/><path d="M168.48,412.18a27,27,0,0,1-4.9-.45C88,398.13,28.07,338.21,14.46,262.62a27.44,27.44,0,0,1,6-22.5,27.78,27.78,0,0,1,21.36-10h126.5a27.78,27.78,0,0,1,27.75,27.75V384.39a27.64,27.64,0,0,1-8.19,19.72,27.36,27.36,0,0,1-19.39,8.07Z" fill="#fff"/><path d="M168.31,230.67a27.25,27.25,0,0,1,27.22,27.21V384.39a27.19,27.19,0,0,1-27.05,27.25,27.84,27.84,0,0,1-4.81-.43A184.71,184.71,0,0,1,15,262.53a26.92,26.92,0,0,1,5.88-22.07,27.22,27.22,0,0,1,20.94-9.79h126.5m0-1.07H41.81a28.24,28.24,0,0,0-27.87,33.12A185.73,185.73,0,0,0,163.48,412.26a28.6,28.6,0,0,0,5,.45,28.29,28.29,0,0,0,28.12-28.32V257.88a28.29,28.29,0,0,0-28.29-28.28Z"/></svg>