<svg xmlns="http://www.w3.org/2000/svg" xmlns:xlink="http://www.w3.org/1999/xlink" viewBox="0 0 340.16 340.16"><defs><linearGradient id="a" x1="8.29" y1="7.6" x2="331.87" y2="331.17" gradientTransform="matrix(1, 0, 0, -1, 0, 339.46)" gradientUnits="userSpaceOnUse"><stop offset="0" stop-color="#f12177"/><stop offset="1" stop-color="#7a00d3"/></linearGradient></defs><rect width="340.16" height="340.16" rx="28.31" fill="url(#a)"/><path d="M81.36,220.77a25.35,25.35,0,0,1,25.35-25.35h38a25.35,25.35,0,0,1,25.35,25.35h0v38a25.35,25.35,0,0,1-25.35,25.35h-38a25.35,25.35,0,0,1-25.35-25.35Zm63.37,0h-38v38h38Z" fill="#fff" fill-rule="evenodd"/><path d="M56,81.36A25.33,25.33,0,0,1,81.36,56h63.37a25.34,25.34,0,0,1,25.35,25.34v63.37a25.35,25.35,0,0,1-25.35,25.35H81.36A25.34,25.34,0,0,1,56,144.73Zm88.71,0H81.36v63.37h63.37Z" fill="#fff" fill-rule="evenodd"/><path d="M195.42,220.77a25.35,25.35,0,0,1,25.35-25.35h38a25.35,25.35,0,0,1,25.35,25.35v38a25.35,25.35,0,0,1-25.35,25.35h-38a25.35,25.35,0,0,1-25.35-25.35Zm63.37,0h-38v38h38Z" fill="#fff" fill-rule="evenodd"/><path d="M195.42,106.71a25.35,25.35,0,0,1,25.35-25.35h38a25.35,25.35,0,0,1,25.35,25.35v38a25.35,25.35,0,0,1-25.35,25.35h-38a25.35,25.35,0,0,1-25.35-25.35h0Zm63.37,0h-38v38h38Z" fill="#fff" fill-rule="evenodd"/></svg>