<svg xmlns="http://www.w3.org/2000/svg" xmlns:xlink="http://www.w3.org/1999/xlink" viewBox="0 0 269.29 354.33"><defs><linearGradient id="a" x1="-17.58" y1="329.58" x2="286.87" y2="25.13" gradientTransform="matrix(1, 0, 0, -1, 0, 354.52)" gradientUnits="userSpaceOnUse"><stop offset="0" stop-color="#fff"/><stop offset="1"/></linearGradient></defs><g opacity="0.69" style="isolation:isolate"><rect x="0.5" y="0.5" width="268.29" height="353.33" rx="10.83" fill="url(#a)"/><path d="M258,1a10.34,10.34,0,0,1,10.33,10.33V343A10.34,10.34,0,0,1,258,353.33H11.33A10.34,10.34,0,0,1,1,343V11.33A10.34,10.34,0,0,1,11.33,1H258m0-1H11.33A11.33,11.33,0,0,0,0,11.33V343a11.33,11.33,0,0,0,11.33,11.33H258A11.33,11.33,0,0,0,269.29,343V11.33A11.33,11.33,0,0,0,258,0Z" fill="#fff"/></g></svg>