<svg xmlns="http://www.w3.org/2000/svg" xmlns:xlink="http://www.w3.org/1999/xlink" viewBox="0 0 340.16 340.16"><defs><linearGradient id="a" x1="8.29" y1="7.59" x2="331.87" y2="331.18" gradientTransform="matrix(1, 0, 0, -1, 0, 339.46)" gradientUnits="userSpaceOnUse"><stop offset="0" stop-color="#18008f"/><stop offset="0.23" stop-color="#132494"/><stop offset="0.73" stop-color="#0780a2"/><stop offset="1" stop-color="#00b4aa"/></linearGradient></defs><rect width="340.16" height="340.16" rx="28.29" fill="url(#a)"/><path d="M234.16,261.59H105.59A12.09,12.09,0,0,0,93.5,273.68h0v12.09a3.66,3.66,0,0,0,3.65,3.64H242.61a3.62,3.62,0,0,0,3.63-3.62V273.68a12.07,12.07,0,0,0-12.07-12.09Z" fill="#fff"/><path d="M264.6,65.09H244.44V58.52a7.77,7.77,0,0,0-7.77-7.77H104.43a7.78,7.78,0,0,0-7.79,7.77h0v6.57h-21a18,18,0,0,0-18,18V94.75a53.48,53.48,0,0,0,26,46.51,52.74,52.74,0,0,0,22.77,6.94h.51a8.46,8.46,0,0,0,.88-.08A74.26,74.26,0,0,0,140,176.74a28.38,28.38,0,0,1,16.2,26v13.36a9,9,0,0,1-9,9H128.54a11,11,0,0,0-11,10.95h0v15h105.9V236a11,11,0,0,0-11-10.95H193.89a9,9,0,0,1-9-9V202.7a28.38,28.38,0,0,1,16.2-26,74.12,74.12,0,0,0,32.35-28.53h.49a52.55,52.55,0,0,0,22.76-6.93A53.47,53.47,0,0,0,282.6,94.77V83.09A18,18,0,0,0,264.6,65.09ZM90.49,129.18a39.48,39.48,0,0,1-19-34.41V83.09a4,4,0,0,1,4-4H96.68v30.4a73.78,73.78,0,0,0,3.94,23.7A38.3,38.3,0,0,1,90.49,129.18Zm108-16.23-8.5,6.18a5.7,5.7,0,0,0-2.07,6.37l3.27,10a5.71,5.71,0,0,1-8.83,6.37l-8.49-6.18a5.72,5.72,0,0,0-6.71,0l-8.5,6.18a5.7,5.7,0,0,1-8.77-6.37l3.25-10a5.7,5.7,0,0,0-2.08-6.37L142.57,113a5.7,5.7,0,0,1,3.36-10.31h10.5a5.7,5.7,0,0,0,5.42-3.94l3.24-10a5.71,5.71,0,0,1,10.85,0l3.25,10a5.69,5.69,0,0,0,5.41,3.94h10.51A5.7,5.7,0,0,1,198.46,113Zm70.15-18.2a39.53,39.53,0,0,1-19,34.41A38.19,38.19,0,0,1,240.6,133a73.73,73.73,0,0,0,3.86-23.47V79.06h20.15a4,4,0,0,1,4.05,4Z" fill="#fff"/></svg>