<svg xmlns="http://www.w3.org/2000/svg" xmlns:xlink="http://www.w3.org/1999/xlink" viewBox="0 0 340.16 340.16"><defs><linearGradient id="a" x1="8.34" y1="331.82" x2="331.82" y2="8.34" gradientUnits="userSpaceOnUse"><stop offset="0" stop-color="#ffda00"/><stop offset="0.45" stop-color="#f6891f"/><stop offset="0.82" stop-color="#f04b37"/><stop offset="1" stop-color="#ed3340"/></linearGradient></defs><rect width="340.16" height="340.16" rx="28.47" fill="url(#a)"/><path d="M173.55,223.72a4.34,4.34,0,0,0,1.29,3.09l11.26,11.27a4.38,4.38,0,0,0,6.19,0l11.93-11.93,9.57,9.57h0l15.12,15.11a21.89,21.89,0,0,0,36.84,10.63,21.9,21.9,0,0,0-10.64-36.84L240,209.51h0l-9.56-9.57L242.36,188a4.38,4.38,0,0,0,0-6.19l-11.27-11.26a4.38,4.38,0,0,0-6.19,0L214.15,181.3l-6.87-9.51L256.88,136a4.35,4.35,0,0,0,1.8-3.16L263.59,77a4.38,4.38,0,0,0-4.74-4.75L203.1,77.21A4.41,4.41,0,0,0,199.93,79l-29.85,41.31L140.24,79a4.41,4.41,0,0,0-3.17-1.79L81.32,72.3A4.36,4.36,0,0,0,76.58,77l4.91,55.75a4.39,4.39,0,0,0,1.8,3.17l49.59,35.84L126,181.3l-10.74-10.74a4.39,4.39,0,0,0-6.2,0L97.81,181.82a4.38,4.38,0,0,0,0,6.19l11.93,11.93L85.05,224.63a21.9,21.9,0,1,0,26.21,26.2L136,226.15l11.93,11.93a4.38,4.38,0,0,0,6.19,0l11.26-11.27a4.38,4.38,0,0,0,0-6.19l-10.74-10.74,15.49-11.2,15.5,11.2-10.75,10.74A4.39,4.39,0,0,0,173.55,223.72Zm86,31.55A13.14,13.14,0,0,1,237.27,248,13.23,13.23,0,0,1,241,236.68a13.06,13.06,0,0,1,9.29-3.85,13.91,13.91,0,0,1,2,.16h0a13.14,13.14,0,0,1,7.26,22.28Zm-16.43-30-.74.27-.36.14-.87.37-.21.1c-.35.16-.7.34-1.05.53l-.23.13-.79.45-.34.22c-.22.14-.44.28-.65.43l-.36.26c-.21.14-.41.3-.62.45l-.34.27-.63.53-.29.25c-.29.26-.58.54-.87.82s-.6.62-.88.94l-.27.32c-.19.22-.38.44-.56.67l-.3.41c-.16.2-.31.41-.46.62l-.3.46-.4.6-.28.5c-.12.2-.24.4-.35.61s-.17.35-.26.52-.21.41-.3.61-.16.37-.24.56-.18.4-.26.61-.14.38-.21.57-.14.37-.2.55l-6.42-6.42L236.9,218.8l6.4,6.4Zm-12.41-12.66-13.82,13.82L210.41,220l13.83-13.83ZM205.86,85.75l48.55-4.27L250.13,130l-48,34.67-10.4-14.39,37.76-37.75a4.38,4.38,0,1,0-6.2-6.19l-36.75,36.76-11.09-15.34ZM85.76,81.48l48.55,4.27,32.22,44.59h0l31.09,43h0l10.25,14.19L203,192.49l-86.12-86.12a4.38,4.38,0,0,0-6.19,6.19l86.12,86.12-4.92,4.92-37.79-27.31-12.5-9h0L90,130ZM140,176.92l6.92,5,.51.37-10.21,10.2-4.92-4.92ZM103.26,218.8l13.83,13.82L110.67,239c-.06-.18-.13-.35-.19-.52s-.14-.4-.22-.6-.17-.4-.25-.59-.16-.39-.25-.58-.19-.39-.29-.58-.18-.37-.28-.55-.22-.39-.33-.59-.19-.35-.3-.52l-.38-.58c-.1-.16-.2-.33-.31-.48s-.29-.4-.44-.6l-.32-.43-.54-.64c-.1-.12-.19-.24-.29-.35-.28-.32-.58-.63-.88-.94s-.58-.56-.88-.82l-.29-.26c-.2-.17-.41-.35-.62-.51s-.23-.19-.35-.28l-.6-.45-.37-.26c-.21-.15-.43-.28-.64-.42l-.36-.23c-.25-.15-.5-.3-.76-.44l-.26-.14c-.34-.19-.69-.37-1-.53L99,226c-.27-.12-.55-.25-.84-.36l-.37-.14c-.24-.1-.49-.19-.73-.27l-.19-.07ZM89.91,259.12a13.14,13.14,0,0,1-2-26.13,13.77,13.77,0,0,1,2-.15,13.05,13.05,0,0,1,9.3,3.84,13.61,13.61,0,0,1,1.91,2.44,13.29,13.29,0,0,1,1.93,6.56,13,13,0,0,1-.15,2.33h0a13.14,13.14,0,0,1-13,11.11Zm33.37-32.69-13.82-13.82,6.47-6.48L129.76,220ZM151,228.79l-11.92-11.92h0l-20-20h0L107.1,184.92l5.07-5.08,21.93,21.94h0l21.94,21.94Zm-2.66-25.19-4.92-4.92,11.2-11.2,8,5.8Zm57.75-1.82,10.65-10.65h0L228,179.84l5.07,5.08-11.92,11.92h0l-20,20h0L189.2,228.79l-5.08-5.07Z" fill="#fff"/></svg>