<svg width="128" height="128" xmlns="http://www.w3.org/2000/svg">

 <g>
  <title>background</title>
  <rect fill="none" id="canvas_background" height="402" width="582" y="-1" x="-1"/>
 </g>
 <g>
  <title>Layer 1</title>
  <path fill="#ffffff" id="svg_2" d="m30,49c0,18.699997 15.299999,34 34,34s34,-15.300003 34,-34s-15.300003,-34 -34,-34s-34,15.299999 -34,34zm60,0c0,14.299999 -11.699997,26 -26,26s-26,-11.700001 -26,-26s11.700001,-26 26,-26s26,11.700001 26,26z"/>
  <path fill="#ffffff" id="svg_3" d="m24.4,119.400002c10.6,-10.599998 24.6,-16.400002 39.6,-16.400002s29,5.800003 39.599998,16.400002l5.700005,-5.700005c-12.100006,-12 -28.200005,-18.699997 -45.300003,-18.699997s-33.200001,6.699997 -45.299999,18.699997l5.699999,5.700005z"/>
 </g>
</svg>