<?xml version="1.0" standalone="no"?>
<!DOCTYPE svg PUBLIC "-//W3C//DTD SVG 20010904//EN"
 "http://www.w3.org/TR/2001/REC-SVG-20010904/DTD/svg10.dtd">
<svg version="1.0" xmlns="http://www.w3.org/2000/svg"
 width="1280.000000pt" height="1280.000000pt" viewBox="0 0 1280.000000 1280.000000"
 preserveAspectRatio="xMidYMid meet">
<g transform="translate(0.000000,1280.000000) scale(0.100000,-0.100000)"
fill="#FFFFFF" stroke="none">
<path d="M6130 12796 c-3 -2 -97 -12 -210 -21 -446 -35 -840 -105 -1250 -220
-1231 -347 -2351 -1069 -3166 -2043 -951 -1136 -1473 -2549 -1502 -4062 -2
-141 0 -292 7 -355 6 -60 16 -168 21 -240 56 -680 245 -1416 524 -2042 609
-1365 1652 -2460 2976 -3124 719 -360 1486 -580 2280 -653 381 -35 441 -38
670 -33 867 19 1700 199 2475 537 66 29 217 101 335 161 1116 563 2031 1431
2655 2519 552 963 850 2079 850 3185 0 664 -113 1359 -325 1995 -114 345 -196
543 -359 868 -441 882 -1074 1642 -1864 2238 -1094 826 -2420 1272 -3832 1291
-154 2 -283 2 -285 -1z m784 -1250 c1227 -138 2287 -640 3132 -1481 796 -793
1320 -1837 1473 -2936 40 -286 46 -380 46 -719 0 -492 -39 -819 -151 -1264
-210 -838 -620 -1601 -1208 -2246 -719 -788 -1718 -1352 -2782 -1569 -341 -70
-622 -96 -1019 -96 -325 0 -466 9 -726 46 -1284 182 -2462 843 -3276 1839
-598 731 -994 1631 -1122 2551 -40 286 -46 380 -46 724 0 344 6 438 46 725
119 857 465 1695 984 2385 213 283 501 591 755 809 313 268 700 525 1060 706
635 318 1262 487 2015 544 121 9 688 -4 819 -18z"/>
<path d="M5960 9311 c-14 -4 -30 -18 -37 -31 -10 -20 -13 -285 -13 -1207 l0
-1183 -1195 -2 c-1131 -3 -1195 -4 -1212 -21 -17 -16 -18 -49 -18 -467 0 -418
1 -451 18 -467 17 -17 81 -18 1212 -21 l1195 -2 2 -1195 c3 -1131 4 -1195 21
-1212 16 -17 49 -18 467 -18 418 0 451 1 467 18 17 17 18 81 21 1212 l2 1195
1195 2 c1131 3 1195 4 1212 21 17 16 18 49 18 467 0 418 -1 451 -18 467 -17
17 -81 18 -1212 21 l-1195 2 -2 1195 c-3 1131 -4 1195 -21 1212 -16 17 -50 18
-450 20 -238 1 -443 -2 -457 -6z"/>
</g>
</svg>
