<svg xmlns="http://www.w3.org/2000/svg" xmlns:xlink="http://www.w3.org/1999/xlink" viewBox="0 0 226.77 28.35"><defs><linearGradient id="a" x1="113.39" x2="113.39" y2="28.35" gradientTransform="matrix(1, 0, 0, -1, 0, 28.35)" gradientUnits="userSpaceOnUse"><stop offset="0" stop-color="#f6f6f6"/><stop offset="0.58" stop-color="#f4f4f4"/><stop offset="0.79" stop-color="#ededed"/><stop offset="0.94" stop-color="#e2e2e2"/><stop offset="1" stop-color="#dadada"/></linearGradient></defs><rect width="226.77" height="28.35" rx="5.6" fill="#3c3aff" opacity="0.4" style="isolation:isolate"/><path d="M221.17,1.3a4.31,4.31,0,0,1,4.3,4.3V22.75a4.31,4.31,0,0,1-4.3,4.3H5.6a4.31,4.31,0,0,1-4.3-4.3V5.6A4.31,4.31,0,0,1,5.6,1.3H221.17m0-1.3H5.6A5.6,5.6,0,0,0,0,5.6H0V22.75a5.6,5.6,0,0,0,5.6,5.6H221.17a5.6,5.6,0,0,0,5.6-5.6h0V5.6a5.6,5.6,0,0,0-5.6-5.6Z" fill="url(#a)"/></svg>