<svg xmlns="http://www.w3.org/2000/svg" viewBox="0 0 142 118.1"><path d="M136.5,116.5C117.9,89.2,93.6,84.8,70,84.2h-.5v21.4A7.92,7.92,0,0,1,56,111.2L3.7,59.5,56.1,7.9a7.64,7.64,0,0,1,5.5-2.3,7.85,7.85,0,0,1,7.9,7.9V35.4h.4a74.82,74.82,0,0,1,66.6,74.4Z" fill="#fff"/><path d="M61.6,5.1v1A7.38,7.38,0,0,1,69,13.5V35.8l.9.1A74.28,74.28,0,0,1,136,109.8v5.1C117.4,88.6,93.3,84.3,70,83.7H69v21.9a7.35,7.35,0,0,1-12.6,5.2L4.4,59.5l52-51.3a7.17,7.17,0,0,1,5.2-2.1v-1m0,0h0a8.67,8.67,0,0,0-5.9,2.4L3,59.5l52.7,52a8.41,8.41,0,0,0,5.9,2.4,8.1,8.1,0,0,0,5.9-2.5,7.85,7.85,0,0,0,2.4-5.9V84.7c23,.6,48.2,4.7,67,33.4v-8.4a75.42,75.42,0,0,0-67-74.9V13.5a8.24,8.24,0,0,0-8.3-8.4Z"/></svg>