<svg xmlns="http://www.w3.org/2000/svg" xmlns:xlink="http://www.w3.org/1999/xlink" viewBox="0 0 170 28"><defs><linearGradient id="a" y1="14" x2="170" y2="14" gradientUnits="userSpaceOnUse"><stop offset="0" stop-color="#36a9e1"/><stop offset="1" stop-color="#2d2e83" stop-opacity="0.7"/></linearGradient><linearGradient id="b" x1="86.84" y1="-7" x2="83.16" y2="35" gradientUnits="userSpaceOnUse"><stop offset="0" stop-color="#fff" stop-opacity="0"/><stop offset="1" stop-color="#fff"/></linearGradient></defs><rect width="170" height="28" rx="3.26" fill="url(#a)"/><path d="M166.74,1A2.26,2.26,0,0,1,169,3.26V24.74A2.26,2.26,0,0,1,166.74,27H3.26A2.26,2.26,0,0,1,1,24.74V3.26A2.26,2.26,0,0,1,3.26,1H166.74m0-1H3.26A3.26,3.26,0,0,0,0,3.26V24.74A3.26,3.26,0,0,0,3.26,28H166.74A3.26,3.26,0,0,0,170,24.74V3.26A3.26,3.26,0,0,0,166.74,0Z" transform="translate(0 0)" fill="url(#b)"/></svg>