<svg xmlns="http://www.w3.org/2000/svg" viewBox="0 0 141.73 141.73"><path d="M31.88,16.92l-28,28-.59.66a7,7,0,0,0,.59,9.24l.66.58a7,7,0,0,0,9.24-.58L29.87,38.74v81.13l0,.82a7,7,0,0,0,7,6.18l.81,0a7,7,0,0,0,6.19-7V38.79l16.05,16,.66.58a7,7,0,0,0,9.23-10.48l-28-28-.66-.59A7,7,0,0,0,31.88,16.92Zm73-2-.82,0a7,7,0,0,0-6.18,7v81.06l-16.06-16-.66-.59A7,7,0,0,0,72,96.89l28,27.92.65.58a7,7,0,0,0,9.24-.59l28-28,.58-.66a7,7,0,0,0-.59-9.24l-.66-.59a7,7,0,0,0-9.24.59l-16,16.06V21.88l-.05-.82A7,7,0,0,0,104.87,14.88Z" fill="#fff"/></svg>