<?xml version="1.0" standalone="no"?>
<!DOCTYPE svg PUBLIC "-//W3C//DTD SVG 20010904//EN"
 "http://www.w3.org/TR/2001/REC-SVG-20010904/DTD/svg10.dtd">
<svg version="1.0" xmlns="http://www.w3.org/2000/svg"
 width="256.000000pt" height="256.000000pt" viewBox="0 0 256.000000 256.000000"
 preserveAspectRatio="xMidYMid meet">
<metadata>
Created by potrace 1.13, written by Peter Selinger 2001-2015
</metadata>
<g transform="translate(0.000000,256.000000) scale(0.100000,-0.100000)"
fill="#000000" stroke="none">
<path d="M1321 2546 c3 -3 51 -20 106 -36 95 -29 239 -87 232 -95 -2 -1 -47 6
-99 16 -412 83 -793 -20 -1081 -289 -160 -151 -273 -330 -339 -540 -18 -56
-34 -101 -36 -100 -6 7 19 191 37 260 26 103 23 123 -8 63 -35 -67 -78 -196
-100 -297 -24 -114 -24 -371 0 -485 108 -509 488 -889 997 -999 119 -26 381
-26 500 0 509 110 889 490 997 999 24 113 24 371 0 484 -120 563 -570 964
-1142 1019 -38 3 -67 4 -64 0z m-469 -223 c-28 -27 -83 -68 -122 -92 -91 -58
-203 -161 -273 -253 -337 -443 -296 -1092 95 -1504 125 -132 277 -228 438
-279 119 -38 118 -37 98 -42 -10 -3 -53 5 -97 15 -362 92 -659 377 -780 749
-42 128 -55 221 -55 373 1 308 107 577 314 794 116 121 224 198 360 257 36 16
67 29 69 29 2 0 -19 -21 -47 -47z m1390 -502 c58 -77 130 -295 127 -383 0 -13
-7 6 -15 42 -20 95 -50 188 -79 245 -27 53 -26 48 11 -57 48 -134 59 -210 58
-408 0 -167 -3 -195 -27 -283 -30 -111 -95 -255 -157 -348 -89 -132 -257 -284
-400 -362 -124 -69 -317 -126 -420 -127 -60 0 -33 19 30 21 25 1 -13 5 -85 9
-114 7 -283 35 -273 46 3 2 39 -3 82 -11 108 -21 280 -19 392 4 358 74 658
345 780 705 38 110 55 221 55 356 1 207 -30 339 -118 520 -31 63 -58 121 -59
129 -4 20 52 -35 98 -98z m-1390 -154 c-2 -22 25 -162 63 -325 79 -345 73
-325 91 -318 9 3 14 -1 14 -14 0 -65 25 17 95 308 43 180 84 342 91 360 l13
32 88 0 c104 0 118 -6 109 -47 -10 -43 142 -646 160 -639 8 3 15 -7 20 -27 5
-26 24 40 90 327 46 197 89 365 95 372 8 10 36 14 90 14 85 0 94 -7 61 -44
-12 -13 -56 -164 -121 -409 -118 -447 -117 -445 -139 -451 -10 -3 -62 -6 -116
-7 l-99 -3 -68 270 c-38 148 -71 286 -74 307 -6 38 -24 48 -44 24 -6 -8 -38
-126 -71 -263 -75 -313 -77 -321 -94 -327 -8 -3 -61 -7 -118 -8 l-103 -2 -92
349 c-122 464 -137 528 -130 548 6 14 20 16 99 14 l93 -3 -3 -38z"/>
</g>
</svg>
